<?xml version="1.0" encoding="UTF-8" standalone="no"?>
<!-- Created with Inkscape (http://www.inkscape.org/) -->

<svg
   xmlns:dc="http://purl.org/dc/elements/1.1/"
   xmlns:cc="http://creativecommons.org/ns#"
   xmlns:rdf="http://www.w3.org/1999/02/22-rdf-syntax-ns#"
   xmlns:svg="http://www.w3.org/2000/svg"
   xmlns="http://www.w3.org/2000/svg"
   xmlns:sodipodi="http://sodipodi.sourceforge.net/DTD/sodipodi-0.dtd"
   xmlns:inkscape="http://www.inkscape.org/namespaces/inkscape"
   width="3000"
   height="2000"
   viewBox="0 0 793.74995 529.16663"
   version="1.1"
   id="svg8"
   sodipodi:docname="512x512.svg"
   inkscape:export-filename="C:\Users\admin\Desktop\icons\icon-192x192.png"
   inkscape:export-xdpi="96"
   inkscape:export-ydpi="96"
   inkscape:version="0.92.2 (5c3e80d, 2017-08-06)">
  <defs
     id="defs2" />
  <sodipodi:namedview
     id="base"
     pagecolor="#ffffff"
     bordercolor="#666666"
     borderopacity="1.0"
     inkscape:pageopacity="0.0"
     inkscape:pageshadow="2"
     inkscape:zoom="0.24933333"
     inkscape:cx="1500"
     inkscape:cy="1500"
     inkscape:document-units="px"
     inkscape:current-layer="layer1"
     showgrid="false"
     units="px"
     showguides="true"
     inkscape:guide-bbox="true"
     inkscape:window-width="1920"
     inkscape:window-height="1001"
     inkscape:window-x="-9"
     inkscape:window-y="-9"
     inkscape:window-maximized="1" />
  <metadata
     id="metadata5">
    <rdf:RDF>
      <cc:Work
         rdf:about="">
        <dc:format>image/svg+xml</dc:format>
        <dc:type
           rdf:resource="http://purl.org/dc/dcmitype/StillImage" />
        <dc:title></dc:title>
      </cc:Work>
    </rdf:RDF>
  </metadata>
  <g
     inkscape:label="Layer 1"
     inkscape:groupmode="layer"
     id="layer1"
     transform="translate(0,232.16663)">
    <text
       xml:space="preserve"
       style="font-style:normal;font-variant:normal;font-weight:normal;font-stretch:normal;font-size:10.58333302px;line-height:1.25;font-family:'Eras Light ITC';-inkscape-font-specification:'Eras Light ITC';letter-spacing:0px;word-spacing:0px;fill:#3f51b5;fill-opacity:1;stroke:none;stroke-width:0.26458332"
       x="-17.748306"
       y="206.80963"
       id="text839"><tspan
         sodipodi:role="line"
         id="tspan837"
         x="-17.748306"
         y="215.98561"
         style="font-style:normal;font-variant:normal;font-weight:normal;font-stretch:normal;font-family:'Eras Light ITC';-inkscape-font-specification:'Eras Light ITC';fill:#3f51b5;fill-opacity:1;stroke-width:0.26458332" /></text>
    <text
       xml:space="preserve"
       style="font-style:normal;font-variant:normal;font-weight:normal;font-stretch:normal;font-size:10.58333302px;line-height:1.25;font-family:Corbel;-inkscape-font-specification:Corbel;letter-spacing:0px;word-spacing:0px;fill:#3f51b5;fill-opacity:1;stroke:none;stroke-width:0.26458332"
       x="-9.5985737"
       y="207.53406"
       id="text843"><tspan
         sodipodi:role="line"
         id="tspan841"
         x="-9.5985737"
         y="216.72729"
         style="font-style:normal;font-variant:normal;font-weight:normal;font-stretch:normal;font-family:Corbel;-inkscape-font-specification:Corbel;fill:#3f51b5;fill-opacity:1;stroke-width:0.26458332" /></text>
    <g
       id="g1753"
       transform="matrix(3.5105419,0,0,3.5096197,174.9518,-703.69138)"
       style="stroke-width:0.83460557"
       inkscape:export-xdpi="96"
       inkscape:export-ydpi="96">
      <ellipse
         style="opacity:1;fill:#ffb380;fill-opacity:1;stroke:#000000;stroke-width:0.44164538;stroke-linecap:round;stroke-linejoin:round;stroke-miterlimit:4;stroke-dasharray:none;stroke-opacity:1"
         id="ellipse1728"
         cx="-119.43929"
         cy="176.3499"
         rx="13.575813"
         ry="38.034023"
         transform="matrix(-0.98673756,-0.16232372,-0.16232372,0.98673756,0,0)" />
      <ellipse
         ry="29.423422"
         rx="10.502357"
         cy="176.3499"
         cx="-119.69539"
         id="ellipse1730"
         style="opacity:1;fill:#ffccaa;fill-opacity:1;stroke:#000000;stroke-width:0.44164538;stroke-linecap:round;stroke-linejoin:round;stroke-miterlimit:4;stroke-dasharray:none;stroke-opacity:1"
         transform="matrix(-0.98673756,-0.16232372,-0.16232372,0.98673756,0,0)" />
      <ellipse
         transform="rotate(-9.3417989)"
         ry="38.034023"
         rx="13.575813"
         cy="196.87288"
         cx="5.3163347"
         id="path1694"
         style="opacity:1;fill:#ffb380;fill-opacity:1;stroke:#000000;stroke-width:0.44164538;stroke-linecap:round;stroke-linejoin:round;stroke-miterlimit:4;stroke-dasharray:none;stroke-opacity:1" />
      <ellipse
         transform="rotate(-9.3417989)"
         style="opacity:1;fill:#ffccaa;fill-opacity:1;stroke:#000000;stroke-width:0.44164538;stroke-linecap:round;stroke-linejoin:round;stroke-miterlimit:4;stroke-dasharray:none;stroke-opacity:1"
         id="ellipse1726"
         cx="5.060216"
         cy="196.87288"
         rx="10.502357"
         ry="29.423422" />
      <path
         id="rect1508"
         d="m 26.00823,183.8095 c -1.465791,0 -2.645833,1.18004 -2.645833,2.64583 v 21.33048 c 0,0.13356 0.01312,0.26357 0.03204,0.39171 l -0.03204,2.25412 8.78396,7.33496 -1.233,-7.33496 h 14.488522 c 2.059791,1.84517 6.513813,5.58313 6.513813,5.58313 l 0.383956,-6.65903 -2.048971,-5.82652 -0.265617,0.0847 V 193.0141 c 1.514604,-0.51965 3.078882,-1.05523 3.078882,-1.05523 l 0.362251,-6.88175 -3.441133,-1.26762 h -2.645834 -4.779552 z"
         style="opacity:1;fill:#ffb380;fill-opacity:1;stroke:#000000;stroke-width:0.44164538;stroke-linecap:round;stroke-linejoin:round;stroke-miterlimit:4;stroke-dasharray:none;stroke-opacity:1"
         inkscape:connector-curvature="0" />
      <path
         id="rect1512"
         transform="matrix(0.26458332,0,0,0.26458332,0,161.53334)"
         d="m 289.54102,84.193359 c 0,0 -17.79688,17.453281 -17.79688,18.822261 0,0.62923 8.57633,1.10726 17.79688,1.44727 v 59.2832 l -9.53516,3.04102 c 0,0 -5.56641,15.97144 -5.56641,16.93945 0,0.96802 28.55664,24.92578 28.55664,24.92578 l 1.37696,-23.83984 h 71.33789 l 8.97265,4.79102 5.47657,-4.79102 v -10 -3.34766 -77.271481 c 0,-5.54 -4.46,-10 -10,-10 h -69.0586 -11.56054 z"
         style="opacity:1;fill:#ffb380;fill-opacity:1;stroke:#000000;stroke-width:1.66921115;stroke-linecap:round;stroke-linejoin:round;stroke-miterlimit:4;stroke-dasharray:none;stroke-opacity:1"
         inkscape:connector-curvature="0" />
      <path
         id="rect1524"
         transform="matrix(0.26458332,0,0,0.26458332,0,161.53334)"
         d="m 364.15039,249.83984 -5.43555,35.59375 h -52.21875 l -5.68359,-16.16406 -16.69922,5.32422 c 0,0 -5.5664,15.97144 -5.5664,16.93945 0,0.4082 5.12086,4.93396 10.99414,9.99805 v 54.6543 l -27.38086,-4.69922 27.38086,34.5664 h 10 16.35156 64.26758 c 5.54,0 10,-4.46 10,-10 v -53.65625 -26.96289 -10 z"
         style="opacity:1;fill:#ffb380;fill-opacity:1;stroke:#000000;stroke-width:1.66921115;stroke-linecap:round;stroke-linejoin:round;stroke-miterlimit:4;stroke-dasharray:none;stroke-opacity:1"
         inkscape:connector-curvature="0" />
      <path
         inkscape:connector-curvature="0"
         id="rect1520"
         d="m 27.533371,229.89598 -4.170805,7.15822 0.0015,2.61224 c -1.41e-4,0.0113 -0.0015,0.0223 -0.0015,0.0336 v 21.33048 c 0,1.46579 1.180042,2.64584 2.645833,2.64584 h 21.330996 c 0.158568,0 0.312793,-0.0164 0.46354,-0.0429 l 2.182294,0.0429 7.322033,-6.37532 -7.322033,1.59835 V 243.0342 c 2.271805,1.0601 4.59909,2.10338 4.696872,1.973 0.192085,-0.25612 0.576191,-9.15654 0.576191,-9.15654 l -0.896585,-2.81689 h -5.890596 l -2.497005,1.79266 -0.116274,2.22777 H 34.354143 l 0.798918,-6.83783 z"
         style="opacity:1;fill:#ffb380;fill-opacity:1;stroke:#000000;stroke-width:0.44164538;stroke-linecap:round;stroke-linejoin:round;stroke-miterlimit:4;stroke-dasharray:none;stroke-opacity:1" />
      <rect
         style="opacity:1;fill:#ffb380;fill-opacity:1;stroke:#000000;stroke-width:0.44164538;stroke-linecap:round;stroke-linejoin:round;stroke-miterlimit:4;stroke-dasharray:none;stroke-opacity:1"
         id="rect1510"
         width="26.622459"
         height="26.622459"
         x="49.985023"
         y="183.80927"
         ry="0" />
      <rect
         style="opacity:1;fill:#ffb380;fill-opacity:1;stroke:#000000;stroke-width:0.44164538;stroke-linecap:round;stroke-linejoin:round;stroke-miterlimit:4;stroke-dasharray:none;stroke-opacity:1"
         id="rect1514"
         width="26.622459"
         height="26.622459"
         x="23.362566"
         y="210.43173"
         ry="0" />
      <rect
         ry="0"
         y="210.43173"
         x="49.985023"
         height="26.622459"
         width="26.622459"
         id="rect1516"
         style="opacity:1;fill:#ffb380;fill-opacity:1;stroke:#000000;stroke-width:0.44164538;stroke-linecap:round;stroke-linejoin:round;stroke-miterlimit:4;stroke-dasharray:none;stroke-opacity:1" />
      <rect
         style="opacity:1;fill:#ffb380;fill-opacity:1;stroke:#000000;stroke-width:0.44164538;stroke-linecap:round;stroke-linejoin:round;stroke-miterlimit:4;stroke-dasharray:none;stroke-opacity:1"
         id="rect1518"
         width="26.622459"
         height="26.622459"
         x="76.607483"
         y="210.43173"
         ry="0" />
      <rect
         style="opacity:1;fill:#ffb380;fill-opacity:1;stroke:#000000;stroke-width:0.44164538;stroke-linecap:round;stroke-linejoin:round;stroke-miterlimit:4;stroke-dasharray:none;stroke-opacity:1"
         id="rect1522"
         width="26.622459"
         height="26.622459"
         x="49.985023"
         y="237.0542"
         ry="0" />
      <text
         id="text1575"
         y="232.21022"
         x="32.535553"
         style="font-style:normal;font-variant:normal;font-weight:normal;font-stretch:normal;font-size:32.6571312px;line-height:1.25;font-family:Corbel;-inkscape-font-specification:'Corbel, Normal';font-variant-ligatures:normal;font-variant-caps:normal;font-variant-numeric:normal;font-feature-settings:normal;text-align:start;letter-spacing:0px;word-spacing:0px;writing-mode:lr-tb;text-anchor:start;fill:#000000;fill-opacity:1;stroke:none;stroke-width:0.44164538;stroke-miterlimit:4;stroke-dasharray:none"
         xml:space="preserve"><tspan
           style="font-style:normal;font-variant:normal;font-weight:normal;font-stretch:normal;font-size:32.6571312px;font-family:Corbel;-inkscape-font-specification:'Corbel, Normal';font-variant-ligatures:normal;font-variant-caps:normal;font-variant-numeric:normal;font-feature-settings:normal;text-align:start;writing-mode:lr-tb;text-anchor:start;stroke-width:0.44164538;stroke-miterlimit:4;stroke-dasharray:none"
           y="232.21022"
           x="32.535553"
           id="tspan1573"
           sodipodi:role="line">&gt;</tspan></text>
      <text
         transform="scale(-1)"
         xml:space="preserve"
         style="font-style:normal;font-variant:normal;font-weight:normal;font-stretch:normal;font-size:32.6571312px;line-height:1.25;font-family:Corbel;-inkscape-font-specification:'Corbel, Normal';font-variant-ligatures:normal;font-variant-caps:normal;font-variant-numeric:normal;font-feature-settings:normal;text-align:start;letter-spacing:0px;word-spacing:0px;writing-mode:lr-tb;text-anchor:start;fill:#000000;fill-opacity:1;stroke:none;stroke-width:0.44164538;stroke-miterlimit:4;stroke-dasharray:none"
         x="-93.527786"
         y="-215.27571"
         id="text1579"><tspan
           sodipodi:role="line"
           id="tspan1577"
           x="-93.527786"
           y="-215.27571"
           style="font-style:normal;font-variant:normal;font-weight:normal;font-stretch:normal;font-size:32.6571312px;font-family:Corbel;-inkscape-font-specification:'Corbel, Normal';font-variant-ligatures:normal;font-variant-caps:normal;font-variant-numeric:normal;font-feature-settings:normal;text-align:start;writing-mode:lr-tb;text-anchor:start;stroke-width:0.44164538;stroke-miterlimit:4;stroke-dasharray:none">&gt;</tspan></text>
      <path
         inkscape:connector-curvature="0"
         id="path1644"
         d="m 63.504301,231.74703 a 2.817335,2.0489709 0 0 0 -2.816884,2.04897 2.817335,2.0489709 0 0 0 2.816884,2.04897 2.817335,2.0489709 0 0 0 2.8174,-2.04897 2.817335,2.0489709 0 0 0 -2.8174,-2.04897 z m -8.246009,4.10363 -1.322917,5.2e-4 a 5.1322182,9.3070059 0 0 0 5.132504,9.30692 5.1322182,9.3070059 0 0 0 4.468979,-4.7532 5.1322182,9.3070059 0 0 0 4.473112,4.7532 5.1322182,9.3070059 0 0 0 5.131985,-9.30692 h -1.322401 a 3.8098053,6.9088806 0 0 1 -3.809584,6.90862 3.8098053,6.9088806 0 0 1 -3.810103,-6.90862 h -1.321885 -5.16e-4 a 5.1322182,9.3070059 0 0 0 5.16e-4,0.003 3.8098056,6.9088809 0 0 1 -3.810103,6.90604 3.8098056,6.9088809 0 0 1 -3.809587,-6.90914 z"
         style="opacity:1;fill:#000000;fill-opacity:1;stroke:#000000;stroke-width:0;stroke-linecap:round;stroke-linejoin:round;stroke-miterlimit:4;stroke-dasharray:none;stroke-opacity:1" />
    </g>
  </g>
</svg>
